<?xml version="1.0" encoding="UTF-8" standalone="no"?><svg xmlns="http://www.w3.org/2000/svg" xmlns:xlink="http://www.w3.org/1999/xlink" contentStyleType="text/css" height="85px" preserveAspectRatio="none" style="width:169px;height:85px;background:#FFFFFF;" version="1.1" viewBox="0 0 169 85" width="169px" zoomAndPan="magnify"><defs/><g><!--MD5=[71656641ace60abd64bcdfb244ff0e52]
class ModeloCubo--><g id="elem_ModeloCubo"><rect codeLine="1" fill="#F1F1F1" height="64.4883" id="ModeloCubo" rx="2.5" ry="2.5" style="stroke:#181818;stroke-width:0.5;" width="148" x="7" y="7"/><ellipse cx="34.6" cy="23" fill="#ADD1B2" rx="11" ry="11" style="stroke:#181818;stroke-width:1.0;"/><path d="M37.0731,29.1431 Q36.4921,29.4419 35.8529,29.5913 Q35.2138,29.7407 34.5082,29.7407 Q32.0014,29.7407 30.6815,28.0889 Q29.3617,26.437 29.3617,23.3159 Q29.3617,20.1865 30.6815,18.5347 Q32.0014,16.8828 34.5082,16.8828 Q35.2138,16.8828 35.8612,17.0322 Q36.5087,17.1816 37.0731,17.4805 L37.0731,20.2031 Q36.4423,19.6221 35.8488,19.3523 Q35.2553,19.0825 34.6244,19.0825 Q33.2797,19.0825 32.5949,20.1492 Q31.9101,21.2158 31.9101,23.3159 Q31.9101,25.4077 32.5949,26.4744 Q33.2797,27.541 34.6244,27.541 Q35.2553,27.541 35.8488,27.2712 Q36.4423,27.0015 37.0731,26.4204 Z " fill="#000000"/><text fill="#000000" font-family="sans-serif" font-size="14" lengthAdjust="spacing" textLength="88" x="51.4" y="28.291">ModeloCubo</text><line style="stroke:#181818;stroke-width:0.5;" x1="8" x2="154" y1="39" y2="39"/><line style="stroke:#181818;stroke-width:0.5;" x1="8" x2="154" y1="47" y2="47"/><ellipse cx="18" cy="60.7441" fill="#84BE84" rx="3" ry="3" style="stroke:#038048;stroke-width:1.0;"/><text fill="#000000" font-family="sans-serif" font-size="14" lengthAdjust="spacing" textLength="122" x="27" y="64.5352">Geometria() : void</text></g><!--MD5=[c7ffc0876008622f064c15feb957b55e]
@startuml
class ModeloCubo {
    + Geometria() : void
}
@enduml

PlantUML version 1.2022.7(Mon Aug 22 14:01:30 BRT 2022)
(GPL source distribution)
Java Runtime: OpenJDK Runtime Environment
JVM: OpenJDK 64-Bit Server VM
Default Encoding: UTF-8
Language: en
Country: BR
--></g></svg>